Coordinates
version=1
nRows=14
nColumns=24
inDegrees=yes

Units are S.I. units (second, meters, Newtons, ...)
Angles are in degrees.

endheader
time	pelvis_tilt	pelvis_list	pelvis_rotation	pelvis_tx	pelvis_ty	pelvis_tz	hip_flexion_r	hip_adduction_r	hip_rotation_r	knee_angle_r	ankle_angle_r	subtalar_angle_r	mtp_angle_r	hip_flexion_l	hip_adduction_l	hip_rotation_l	knee_angle_l	ankle_angle_l	subtalar_angle_l	mtp_angle_l	lumbar_extension	lumbar_bending	lumbar_rotation
      6.93000000	     -7.87642708	      4.46959202	      4.76901858	     -0.75568175	     -0.00480490	     -0.31198928	     26.91799267	    -11.25828232	    -11.42565388	    -65.38680108	    -16.05062214	      4.13024681	     35.72650981	     11.32137207	     11.18792755	     21.63335892	    -14.87836910	      1.54133344	    -10.65929146	     -1.12440815	      6.00992232	     -7.12681992	     -0.83324504
      6.93500000	     -7.77109859	      4.25070019	      5.02236454	     -0.75073247	     -0.00428758	     -0.31228496	     27.41864605	    -11.15149703	    -11.64826117	    -64.84749755	    -15.46425591	      4.09275856	     35.78492807	     10.72093426	     10.93545647	     22.00770736	    -14.61736615	      1.74595480	    -10.64746462	     -1.16375525	      5.82424763	     -6.92057459	     -1.25925606
      6.94000000	     -7.62636072	      4.06798329	      5.25678233	     -0.74582158	     -0.00375116	     -0.31253359	     27.86266483	    -11.06015915	    -11.83480775	    -64.24082623	    -14.87946951	      4.03948775	     35.75201186	     10.07018289	     10.69479775	     22.32426222	    -14.32296640	      1.91729533	    -10.59055416	     -1.18985456	      5.58714892	     -6.74601910	     -1.68646407
      6.94500000	     -7.49709977	      3.88915056	      5.45321382	     -0.74089675	     -0.00329222	     -0.31273103	     28.31472532	    -10.94693845	    -11.97766881	    -63.57047589	    -14.30604263	      3.97715443	     35.65445926	      9.43108491	     10.43526462	     22.57121274	    -14.00084384	      2.12417531	    -10.49223409	     -1.11886461	      5.38170882	     -6.56995487	     -2.03618503
      6.95000000	     -7.38383782	      3.72105145	      5.63044245	     -0.73597649	     -0.00289133	     -0.31287881	     28.77022955	    -10.82383506	    -12.08345138	    -62.83425476	    -13.75843323	      3.91374721	     35.52079735	      8.80610492	     10.16937392	     22.76792850	    -13.65565750	      2.32365088	    -10.35075156	     -0.96693502	      5.19714978	     -6.40184434	     -2.35388108
      6.95500000	     -7.23312066	      3.57015864	      5.81321468	     -0.73108576	     -0.00250519	     -0.31299059	     29.15871184	    -10.70854678	    -12.18893452	    -62.03288455	    -13.19110805	      3.84923676	     35.28255493	      8.14412900	      9.90626588	     22.92320243	    -13.30302362	      2.51133930	    -10.17245018	     -0.71261497	      4.96513691	     -6.25340088	     -2.69106433
      6.96000000	     -7.04859271	      3.46316296	      5.96902959	     -0.72619523	     -0.00216498	     -0.31302030	     29.50049628	    -10.61493811	    -12.26459567	    -61.19596459	    -12.56513220	      3.78823298	     34.77134784	      7.43545513	      9.66628139	     23.04481363	    -12.91861305	      2.64940139	     -9.99394590	     -0.23879585	      4.69522322	     -6.15164513	     -2.95474431
      6.96500000	     -6.92405692	      3.34009579	      6.11870020	     -0.72132294	     -0.00192230	     -0.31303039	     29.88763439	    -10.48826877	    -12.30116996	    -60.28517614	    -11.97596704	      3.75751552	     34.28052531	      6.80348599	      9.41437244	     23.16166498	    -12.54584588	      2.75315493	     -9.87380870	      0.24205413	      4.49545069	     -6.03309045	     -3.23206850
      6.97000000	     -6.81701968	      3.21535728	      6.29212579	     -0.71647623	     -0.00173099	     -0.31308066	     30.25811512	    -10.36812522	    -12.34401859	    -59.28580503	    -11.47446663	      3.71194083	     33.97348285	      6.20819194	      9.17531165	     23.27981982	    -12.21302922	      2.88859323	     -9.76733024	      0.52762168	      4.30819363	     -5.91425442	     -3.57358743
      6.97500000	     -6.67726751	      3.10416531	      6.44227909	     -0.71160229	     -0.00156218	     -0.31305586	     30.56877930	    -10.23770531	    -12.36585675	    -58.22506332	    -10.96849275	      3.67382648	     33.54076167	      5.57046632	      8.93847013	     23.40978997	    -11.87205946	      3.02767975	     -9.70666017	      0.80341777	      4.09268436	     -5.80758130	     -3.86494991
      6.98000000	     -6.65592889	      3.01000621	      6.56009625	     -0.70674171	     -0.00156309	     -0.31296568	     31.00289644	    -10.09795492	    -12.28800973	    -57.10127889	    -10.56335711	      3.64741112	     33.29777546	      5.07275739	      8.73349427	     23.59577727	    -11.56833162	      3.17990921	     -9.67206740	      0.93376711	      4.01516834	     -5.72558133	     -4.05414757
      6.98500000	     -6.40436389	      2.93760561	      6.76271974	     -0.70192810	     -0.00137304	     -0.31290592	     31.11959401	    -10.01448236	    -12.36601390	    -55.92970302	     -9.98620134	      3.65065049	     32.49400679	      4.32185842	      8.53099208	     23.83982748	    -11.25644434	      3.28738971	     -9.70336664	      1.12451698	      3.64438770	     -5.66504792	     -4.42808816
      6.99000000	     -6.30027627	      2.84435625	      6.92703412	     -0.69704512	     -0.00136117	     -0.31280776	     31.38180641	     -9.88958868	    -12.36567743	    -54.69708695	     -9.45226593	      3.73266377	     31.70345367	      3.74154040	      8.32709135	     24.11477509	    -10.97943411	      3.39829730	     -9.81709665	      1.16780853	      3.46849980	     -5.58577579	     -4.70380281
      6.99500000	     -6.33430712	      2.76062377	      7.03514200	     -0.69220541	     -0.00154292	     -0.31261211	     31.79389497	     -9.73637304	    -12.22863214	    -53.38346242	     -9.13230683	      3.77847865	     31.45080391	      3.34803341	      8.15350174	     24.29842543	    -10.76948769	      3.55390444	     -9.86910097	      1.16752242	      3.44263363	     -5.52613084	     -4.88935390
